<?xml version="1.0" encoding="UTF-8" standalone="no"?><!-- Generator: Gravit.io --><svg xmlns="http://www.w3.org/2000/svg" xmlns:xlink="http://www.w3.org/1999/xlink" style="isolation:isolate" viewBox="0 0 200 200" width="200pt" height="200pt"><clipPath id="_clipPath_FmmOpDBxpCPFRKg5cTGFHa3tvpZnIvEN"><rect x="0" y="0" width="200" height="200" transform="matrix(1,0,0,1,0,0)" fill="rgb(255,255,255)"/></clipPath><g clip-path="url(#_clipPath_FmmOpDBxpCPFRKg5cTGFHa3tvpZnIvEN)"><g><path d=" M 56.624 179.745 L 60.472 180.837 L 64.32 181.93 L 68.168 183.022 L 72.016 184.115 L 75.864 185.208 L 79.712 186.3 L 83.56 187.393 L 87.408 188.485 L 91.256 189.578 L 95.103 190.67 L 98.951 191.763 L 102.799 192.855 L 106.647 193.948 L 107.333 194.143 L 110.993 192.53 L 114.654 190.918 L 118.314 189.305 L 121.975 187.693 L 125.636 186.08 L 129.296 184.468 L 132.957 182.856 L 136.618 181.243 L 140.278 179.63 L 143.939 178.018 L 147.599 176.406 L 151.26 174.793 L 154.92 173.181 L 157.84 171.895 L 160.571 168.972 L 163.302 166.049 L 166.032 163.126 L 168.763 160.204 L 171.494 157.281 L 174.225 154.358 L 176.956 151.435 L 179.686 148.512 L 182.418 145.59 L 183.869 144.036 L 184.664 140.116 L 185.458 136.196 L 186.253 132.276 L 187.048 128.355 L 187.842 124.435 L 188.637 120.515 L 189.432 116.594 L 190.226 112.674 L 191.021 108.754 L 191.816 104.833 L 192.61 100.914 L 193.405 96.993 L 194.01 94.006 L 192.771 90.203 L 191.532 86.4 L 190.293 82.597 L 189.054 78.793 L 187.815 74.99 L 186.576 71.187 L 185.337 67.384 L 184.098 63.58 L 182.869 59.808 L 181.226 56.161 L 179.584 52.513 L 177.942 48.866 L 176.621 45.934 L 173.784 43.114 L 170.946 40.295 L 168.108 37.476 L 165.271 34.656 L 162.434 31.837 L 159.596 29.017 L 156.759 26.198 L 153.921 23.379 L 151.084 20.559 L 148.246 17.74 L 146.698 16.202 L 142.775 15.422 L 138.852 14.642 L 134.929 13.862 L 131.006 13.082 L 127.082 12.302 L 123.159 11.522 L 119.236 10.742 L 115.313 9.962 L 111.39 9.182 L 107.466 8.402 L 103.543 7.622 L 99.62 6.842 L 95.697 6.062 L 94.669 5.858 L 90.881 7.143 L 87.093 8.429 L 83.305 9.714 L 79.518 11 L 75.73 12.286 L 71.942 13.571 L 68.154 14.857 L 64.367 16.143 L 60.579 17.429 L 56.791 18.714 L 53.003 20 L 50.676 20.79 L 47.843 23.614 L 45.011 26.438 L 42.178 29.263 L 39.346 32.088 L 36.514 34.912 L 33.681 37.736 L 30.849 40.561 L 28.016 43.385 L 25.184 46.21 L 22.351 49.034 L 19.519 51.858 L 17.285 54.086 L 16.413 57.99 L 15.54 61.893 L 14.668 65.797 L 13.796 69.7 L 12.923 73.604 L 12.05 77.508 L 11.178 81.412 L 10.306 85.315 L 9.433 89.219 L 8.561 93.123 L 7.688 97.026 L 6.816 100.93 L 5.99 104.627 L 7.316 108.4 L 8.642 112.174 L 9.968 115.948 L 11.295 119.722 L 12.621 123.496 L 13.948 127.27 L 15.274 131.043 L 16.6 134.817 L 17.926 138.59 L 19.253 142.364 L 20.579 146.138 L 21.905 149.912 L 23.331 153.967 L 26.494 156.416 L 29.656 158.865 L 32.819 161.314 L 35.982 163.762 L 39.145 166.211 L 42.308 168.66 L 45.47 171.109 L 48.633 173.558 L 51.796 176.006 L 54.959 178.455" fill="rgb(255,255,255)"/><path d=" M 56.624 179.744 L 60.472 180.837 L 64.32 181.93 L 68.168 183.022 L 72.016 184.114 L 75.864 185.207 L 79.712 186.3 L 83.56 187.392 L 87.408 188.485 L 91.256 189.577 L 95.103 190.67 L 98.951 191.762 L 102.799 192.855 L 106.647 193.948 L 107.333 194.142 L 110.993 192.53 L 114.654 190.918 L 118.314 189.305 L 121.975 187.692 L 125.636 186.08 L 129.296 184.468 L 132.957 182.855 L 136.618 181.242 L 140.278 179.63 L 143.939 178.018 L 147.599 176.405 L 151.26 174.793 L 154.92 173.181 L 157.84 171.894 L 160.571 168.972 L 163.302 166.049 L 166.032 163.126 L 168.763 160.203 L 171.494 157.281 L 174.225 154.358 L 176.956 151.435 L 179.686 148.512 L 182.418 145.59 L 183.869 144.036 L 184.664 140.116 L 185.458 136.196 L 186.253 132.276 L 187.048 128.355 L 187.842 124.435 L 188.637 120.514 L 189.432 116.594 L 190.226 112.674 L 191.021 108.754 L 191.816 104.833 L 192.61 100.913 L 193.405 96.993 L 194.01 94.006 L 192.771 90.203 L 191.532 86.4 L 190.293 82.597 L 189.054 78.793 L 187.815 74.99 L 186.576 71.187 L 185.337 67.384 L 184.098 63.58 L 182.869 59.808 L 181.226 56.161 L 179.584 52.513 L 177.942 48.866 L 176.621 45.934 L 173.784 43.114 L 170.946 40.294 L 168.108 37.475 L 165.271 34.656 L 162.434 31.837 L 159.596 29.017 L 156.759 26.198 L 153.921 23.378 L 151.084 20.559 L 148.246 17.74 L 146.698 16.202 L 142.775 15.422 L 138.852 14.642 L 134.929 13.862 L 131.006 13.082 L 127.082 12.302 L 123.159 11.522 L 119.236 10.742 L 115.313 9.962 L 111.39 9.182 L 107.466 8.402 L 103.543 7.622 L 99.62 6.842 L 95.697 6.062 L 94.669 5.858 L 90.881 7.144 L 87.093 8.429 L 83.305 9.714 L 79.518 11 L 75.73 12.286 L 71.942 13.571 L 68.154 14.857 L 64.367 16.142 L 60.579 17.428 L 56.791 18.714 L 53.003 20 L 50.676 20.79 L 47.843 23.614 L 45.011 26.438 L 42.178 29.263 L 39.346 32.087 L 36.514 34.912 L 33.681 37.736 L 30.849 40.561 L 28.016 43.385 L 25.184 46.209 L 22.351 49.034 L 19.519 51.858 L 17.285 54.085 L 16.413 57.989 L 15.54 61.893 L 14.668 65.797 L 13.796 69.7 L 12.923 73.604 L 12.05 77.508 L 11.178 81.411 L 10.306 85.315 L 9.433 89.218 L 8.561 93.123 L 7.688 97.026 L 6.816 100.93 L 5.99 104.627 L 7.316 108.401 L 8.642 112.174 L 9.968 115.948 L 11.295 119.722 L 12.621 123.496 L 13.948 127.27 L 15.274 131.043 L 16.6 134.816 L 17.926 138.59 L 19.253 142.364 L 20.579 146.138 L 21.905 149.911 L 23.331 153.967 L 26.494 156.416 L 29.656 158.864 L 32.819 161.313 L 35.982 163.762 L 39.145 166.211 L 42.308 168.66 L 45.47 171.108 L 48.633 173.557 L 51.796 176.006 L 54.959 178.455" fill="none" vector-effect="non-scaling-stroke" stroke-width="1.2" stroke="rgb(0,0,0)" stroke-opacity="10000" stroke-linejoin="round" stroke-linecap="butt" stroke-miterlimit="4"/><path d=" M 112.294 178.534 L 111.082 182.347 L 109.87 186.158 L 108.659 189.971 L 107.447 193.783 L 107.333 194.142 L 57.07 179.744" fill="none" vector-effect="non-scaling-stroke" stroke-width="1.2" stroke="rgb(0,0,0)" stroke-opacity="10000" stroke-linejoin="round" stroke-linecap="butt" stroke-miterlimit="4"/><path d=" M 157.84 171.894 L 153.882 172.472 L 149.924 173.049 L 145.966 173.626 L 142.007 174.203 L 138.049 174.78 L 134.091 175.357 L 130.133 175.934 L 126.175 176.511 L 122.216 177.088 L 118.258 177.665 L 114.3 178.242 L 112.294 178.534" fill="none" vector-effect="non-scaling-stroke" stroke-width="1.2" stroke="rgb(0,0,0)" stroke-opacity="10000" stroke-linejoin="round" stroke-linecap="butt" stroke-miterlimit="4"/><path d=" M 187.349 120.1 L 185.369 123.575 L 183.389 127.051 L 181.409 130.526 L 179.429 134.002 L 177.449 137.477 L 175.469 140.953 L 173.488 144.428 L 171.508 147.903 L 169.528 151.379 L 167.548 154.855 L 165.568 158.33 L 163.588 161.805 L 161.608 165.281 L 159.628 168.757 L 157.84 171.894 L 156.304 168.202 L 154.768 164.508 L 153.232 160.814 L 151.696 157.122 L 150.159 153.428 L 148.623 149.735 L 147.087 146.042 L 145.551 142.348 L 144.542 139.924" fill="none" vector-effect="non-scaling-stroke" stroke-width="1.2" stroke="rgb(0,0,0)" stroke-opacity="10000" stroke-linejoin="round" stroke-linecap="butt" stroke-miterlimit="4"/><path d=" M 144.542 139.924 L 141.978 142.994 L 139.414 146.063 L 136.85 149.133 L 134.286 152.203 L 131.722 155.274 L 129.157 158.344 L 126.593 161.413 L 124.029 164.483 L 121.465 167.553 L 118.901 170.624 L 116.337 173.694 L 113.772 176.764 L 112.294 178.534" fill="none" vector-effect="non-scaling-stroke" stroke-width="1.2" stroke="rgb(0,0,0)" stroke-opacity="10000" stroke-linejoin="round" stroke-linecap="butt" stroke-miterlimit="4"/><path d=" M 27.972 129.548 L 27.225 133.477 L 26.478 137.407 L 25.731 141.336 L 24.984 145.266 L 24.238 149.196 L 23.491 153.126 L 23.331 153.967 L 56.791 179.63" fill="none" vector-effect="non-scaling-stroke" stroke-width="1.2" stroke="rgb(0,0,0)" stroke-opacity="10000" stroke-linejoin="round" stroke-linecap="butt" stroke-miterlimit="4"/><path d=" M 57.07 179.63 L 33.888 138.348 L 31.656 135.028 L 29.424 131.708 L 27.972 129.548" fill="none" vector-effect="non-scaling-stroke" stroke-width="1.2" stroke="rgb(0,0,0)" stroke-opacity="10000" stroke-linejoin="round" stroke-linecap="butt" stroke-miterlimit="4"/><path d=" M 144.542 139.924 L 140.55 140.168 L 136.557 140.411 L 132.565 140.656 L 128.572 140.9 L 124.58 141.144 L 120.587 141.388 L 116.594 141.632 L 112.602 141.877 L 108.61 142.121 L 104.617 142.364 L 100.624 142.609 L 96.632 142.853 L 92.639 143.098 L 88.647 143.342 L 84.654 143.585 L 81.816 143.759" fill="none" vector-effect="non-scaling-stroke" stroke-width="1.2" stroke="rgb(0,0,0)" stroke-opacity="10000" stroke-linejoin="round" stroke-linecap="butt" stroke-miterlimit="4"/><path d=" M 81.816 143.759 L 84.452 146.768 L 87.089 149.776 L 89.725 152.784 L 92.362 155.792 L 94.998 158.8 L 97.634 161.808 L 100.271 164.816 L 102.907 167.825 L 105.544 170.833 L 108.18 173.841 L 110.816 176.85 L 112.294 178.534 L 56.791 179.744" fill="none" vector-effect="non-scaling-stroke" stroke-width="1.2" stroke="rgb(0,0,0)" stroke-opacity="10000" stroke-linejoin="round" stroke-linecap="butt" stroke-miterlimit="4"/><path d=" M 27.972 129.548 L 25.326 126.548 L 22.68 123.548 L 20.034 120.548 L 17.388 117.549 L 14.742 114.549 L 12.095 111.549 L 9.449 108.55 L 6.803 105.55 L 5.99 104.627 L 7.779 101.05 L 9.568 97.472 L 11.358 93.894 L 13.147 90.318 L 14.936 86.74 L 16.726 83.162 L 18.515 79.585 L 20.305 76.008 L 22.094 72.43 L 23.884 68.852 L 24.226 68.168" fill="none" vector-effect="non-scaling-stroke" stroke-width="1.2" stroke="rgb(0,0,0)" stroke-opacity="10000" stroke-linejoin="round" stroke-linecap="butt" stroke-miterlimit="4"/><line x1="194.01" y1="94.006" x2="188.074" y2="120.548" vector-effect="non-scaling-stroke" stroke-width="1.2" stroke="rgb(0,0,0)" stroke-opacity="10000" stroke-linejoin="round" stroke-linecap="butt" stroke-miterlimit="4"/><line x1="188.074" y1="120.1" x2="183.869" y2="144.036" vector-effect="non-scaling-stroke" stroke-width="1.2" stroke="rgb(0,0,0)" stroke-opacity="10000" stroke-linejoin="round" stroke-linecap="butt" stroke-miterlimit="4"/><path d=" M 56.65 93.506 L 60.636 93.171 L 64.622 92.835 L 68.608 92.5 L 72.594 92.164 L 76.579 91.829 L 80.565 91.494 L 84.551 91.159 L 88.537 90.823 L 92.523 90.488 L 96.509 90.152 L 100.495 89.818 L 104.481 89.482 L 108.467 89.147 L 112.122 88.839" fill="none" vector-effect="non-scaling-stroke" stroke-width="1.2" stroke="rgb(0,0,0)" stroke-opacity="10000" stroke-linejoin="round" stroke-linecap="butt" stroke-miterlimit="4"/><path d=" M 112.122 88.839 L 109.64 85.702 L 107.158 82.565 L 104.676 79.428 L 102.195 76.291 L 99.713 73.154 L 97.231 70.017 L 94.75 66.88 L 92.268 63.742 L 89.786 60.606 L 87.305 57.468 L 84.823 54.332 L 82.341 51.194 L 79.86 48.058 L 77.378 44.92 L 75.166 42.125" fill="none" vector-effect="non-scaling-stroke" stroke-width="1.2" stroke="rgb(0,0,0)" stroke-opacity="10000" stroke-linejoin="round" stroke-linecap="butt" stroke-miterlimit="4"/><path d=" M 75.166 42.125 L 73.81 45.888 L 72.454 49.651 L 71.098 53.414 L 69.742 57.178 L 68.386 60.94 L 67.03 64.704 L 65.674 68.466 L 64.317 72.23 L 62.961 75.992 L 61.605 79.756 L 60.249 83.519 L 58.893 87.282 L 57.536 91.045 L 56.65 93.506" fill="none" vector-effect="non-scaling-stroke" stroke-width="1.2" stroke="rgb(0,0,0)" stroke-opacity="10000" stroke-linejoin="round" stroke-linecap="butt" stroke-miterlimit="4"/><path d=" M 17.285 54.085 L 19.054 57.673 L 20.822 61.261 L 22.59 64.849 L 24.226 68.168" fill="none" vector-effect="non-scaling-stroke" stroke-width="1.2" stroke="rgb(0,0,0)" stroke-opacity="10000" stroke-linejoin="round" stroke-linecap="butt" stroke-miterlimit="4"/><path d=" M 24.226 68.168 L 26.176 64.676 L 28.125 61.184 L 30.075 57.69 L 32.025 54.198 L 33.975 50.706 L 35.924 47.213 L 37.874 43.72 L 39.824 40.228 L 41.774 36.735 L 43.724 33.242 L 45.674 29.75 L 47.623 26.258 L 49.573 22.764 L 50.676 20.79" fill="none" vector-effect="non-scaling-stroke" stroke-width="1.2" stroke="rgb(0,0,0)" stroke-opacity="10000" stroke-linejoin="round" stroke-linecap="butt" stroke-miterlimit="4"/><path d=" M 163.373 87.572 L 165.672 84.299 L 167.97 81.025 L 170.269 77.751 L 172.568 74.478 L 174.866 71.204 L 177.165 67.931 L 179.463 64.658 L 181.762 61.384 L 182.869 59.808" fill="none" vector-effect="non-scaling-stroke" stroke-width="1.2" stroke="rgb(0,0,0)" stroke-opacity="10000" stroke-linejoin="round" stroke-linecap="butt" stroke-miterlimit="4"/><path d=" M 182.869 59.808 L 179.232 58.143 L 175.594 56.478 L 171.957 54.813 L 168.32 53.149 L 164.683 51.484 L 161.046 49.819 L 157.409 48.154 L 153.772 46.489 L 150.135 44.825 L 146.498 43.16 L 142.861 41.495 L 139.224 39.83 L 137.412 39.001" fill="none" vector-effect="non-scaling-stroke" stroke-width="1.2" stroke="rgb(0,0,0)" stroke-opacity="10000" stroke-linejoin="round" stroke-linecap="butt" stroke-miterlimit="4"/><path d=" M 137.412 39.001 L 139.298 42.528 L 141.183 46.056 L 143.069 49.584 L 144.954 53.112 L 146.84 56.639 L 148.725 60.168 L 150.611 63.695 L 152.496 67.223 L 154.382 70.75 L 156.267 74.278 L 158.153 77.806 L 160.038 81.334 L 161.924 84.861 L 163.373 87.572" fill="none" vector-effect="non-scaling-stroke" stroke-width="1.2" stroke="rgb(0,0,0)" stroke-opacity="10000" stroke-linejoin="round" stroke-linecap="butt" stroke-miterlimit="4"/><path d=" M 137.412 39.001 L 138.921 35.297 L 140.43 31.592 L 141.939 27.887 L 143.448 24.183 L 144.956 20.478 L 146.466 16.774 L 146.698 16.202" fill="none" vector-effect="non-scaling-stroke" stroke-width="1.2" stroke="rgb(0,0,0)" stroke-opacity="10000" stroke-linejoin="round" stroke-linecap="butt" stroke-miterlimit="4"/><path d=" M 187.349 120.1 L 187.053 116.11 L 186.756 112.122 L 186.46 108.132 L 186.164 104.144 L 185.867 100.155 L 185.571 96.166 L 185.274 92.176 L 184.978 88.187 L 184.681 84.199 L 184.385 80.209 L 184.088 76.221 L 183.792 72.232 L 183.496 68.242 L 183.199 64.254 L 182.869 59.808 L 180.315 56.729 L 177.761 53.65 L 175.208 50.571 L 172.654 47.493 L 170.1 44.414 L 167.546 41.335 L 164.992 38.256 L 162.439 35.178 L 159.885 32.099 L 157.332 29.021 L 154.778 25.942 L 152.224 22.863 L 149.67 19.784 L 147.116 16.706 L 146.698 16.202 L 142.727 15.723 L 138.756 15.244 L 134.785 14.766 L 130.814 14.287 L 126.842 13.808 L 122.871 13.33 L 118.9 12.851 L 114.928 12.372 L 110.957 11.894 L 106.986 11.414 L 103.015 10.936 L 100.92 10.684" fill="none" vector-effect="non-scaling-stroke" stroke-width="1.2" stroke="rgb(0,0,0)" stroke-opacity="10000" stroke-linejoin="round" stroke-linecap="butt" stroke-miterlimit="4"/><path d=" M 100.92 10.684 L 104.08 13.136 L 107.241 15.588 L 110.401 18.04 L 113.561 20.492 L 116.721 22.944 L 119.881 25.397 L 123.041 27.849 L 126.202 30.301 L 129.362 32.754 L 132.522 35.206 L 135.682 37.658 L 137.412 39.001" fill="none" vector-effect="non-scaling-stroke" stroke-width="1.2" stroke="rgb(0,0,0)" stroke-opacity="10000" stroke-linejoin="round" stroke-linecap="butt" stroke-miterlimit="4"/><path d=" M 94.669 5.858 L 97.835 8.302 L 100.92 10.684" fill="none" vector-effect="non-scaling-stroke" stroke-width="1.2" stroke="rgb(0,0,0)" stroke-opacity="10000" stroke-linejoin="round" stroke-linecap="butt" stroke-miterlimit="4"/><path d=" M 75.166 42.125 L 72.15 39.497 L 69.134 36.87 L 66.118 34.242 L 63.102 31.616 L 60.086 28.988 L 57.07 26.36 L 54.054 23.733 L 51.038 21.106 L 50.676 20.79 L 54.597 20.001 L 58.519 19.212 L 62.44 18.423 L 66.362 17.635 L 70.283 16.846 L 74.204 16.057 L 78.126 15.268 L 82.048 14.48 L 85.969 13.691 L 89.89 12.902 L 93.812 12.113 L 97.733 11.325 L 100.92 10.684 L 98.386 13.778 L 95.851 16.872 L 93.316 19.967 L 90.782 23.061 L 88.247 26.156 L 85.712 29.25 L 83.178 32.344 L 80.643 35.439 L 78.108 38.534 L 75.574 41.628" fill="none" vector-effect="non-scaling-stroke" stroke-width="1.2" stroke="rgb(0,0,0)" stroke-opacity="10000" stroke-linejoin="round" stroke-linecap="butt" stroke-miterlimit="4"/><path d=" M 24.226 68.168 L 27.787 66.348 L 31.349 64.527 L 34.91 62.706 L 38.472 60.885 L 42.033 59.064 L 45.595 57.244 L 49.156 55.423 L 52.718 53.602 L 56.28 51.781 L 59.841 49.96 L 63.402 48.139 L 66.964 46.318 L 70.526 44.498 L 74.087 42.677 L 75.166 42.125 L 79.162 41.925 L 83.156 41.724 L 87.152 41.523 L 91.146 41.323 L 95.142 41.123 L 99.136 40.922 L 103.131 40.721 L 107.126 40.521 L 111.121 40.321 L 115.116 40.12 L 119.111 39.92 L 123.106 39.719 L 127.101 39.518 L 131.096 39.318 L 135.091 39.118 L 137.412 39.001 L 135.602 42.568 L 133.792 46.135 L 131.982 49.702 L 130.172 53.269 L 128.362 56.836 L 126.552 60.403 L 124.742 63.97 L 122.932 67.537 L 121.121 71.104 L 119.311 74.671 L 117.501 78.238 L 115.691 81.805 L 113.881 85.372 L 112.122 88.839" fill="none" vector-effect="non-scaling-stroke" stroke-width="1.2" stroke="rgb(0,0,0)" stroke-opacity="10000" stroke-linejoin="round" stroke-linecap="butt" stroke-miterlimit="4"/><path d=" M 27.972 129.548 L 27.728 125.555 L 27.484 121.562 L 27.241 117.57 L 26.997 113.577 L 26.753 109.584 L 26.51 105.592 L 26.266 101.6 L 26.022 97.607 L 25.779 93.614 L 25.535 89.622 L 25.291 85.63 L 25.048 81.637 L 24.804 77.644 L 24.56 73.651 L 24.317 69.659 L 24.226 68.168 L 27.378 70.632 L 30.529 73.094 L 33.681 75.558 L 36.833 78.02 L 39.985 80.484 L 43.136 82.946 L 46.288 85.409 L 49.44 87.872 L 52.592 90.335 L 55.744 92.798 L 56.65 93.506" fill="none" vector-effect="non-scaling-stroke" stroke-width="1.2" stroke="rgb(0,0,0)" stroke-opacity="10000" stroke-linejoin="round" stroke-linecap="butt" stroke-miterlimit="4"/><path d=" M 112.122 88.839 L 116.12 88.74 L 120.119 88.642 L 124.118 88.542 L 128.117 88.444 L 132.116 88.345 L 136.114 88.246 L 140.113 88.147 L 144.112 88.049 L 148.11 87.949 L 152.109 87.851 L 156.108 87.752 L 160.107 87.653 L 163.373 87.572" fill="none" vector-effect="non-scaling-stroke" stroke-width="1.2" stroke="rgb(0,0,0)" stroke-opacity="10000" stroke-linejoin="round" stroke-linecap="butt" stroke-miterlimit="4"/><path d=" M 81.816 143.759 L 83.748 140.257 L 85.681 136.755 L 87.614 133.253 L 89.546 129.751 L 91.479 126.248 L 93.411 122.746 L 95.344 119.244 L 97.276 115.742 L 99.209 112.239 L 101.142 108.737 L 103.074 105.235 L 105.006 101.733 L 106.939 98.231 L 108.872 94.729 L 110.804 91.226 L 112.122 88.839 L 114.265 92.216 L 116.408 95.594 L 118.552 98.971 L 120.695 102.348 L 122.838 105.726 L 124.982 109.103 L 127.125 112.48 L 129.269 115.857 L 131.412 119.234 L 133.556 122.612 L 135.699 125.989 L 137.842 129.366 L 139.986 132.744 L 142.129 136.121 L 144.542 139.924 L 145.896 136.159 L 147.25 132.396 L 148.604 128.631 L 149.958 124.868 L 151.312 121.104 L 152.666 117.34 L 154.019 113.576 L 155.373 109.812 L 156.727 106.048 L 158.081 102.284 L 159.435 98.52 L 160.789 94.756 L 162.143 90.992 L 163.373 87.572 L 165.746 90.792 L 168.12 94.012 L 170.493 97.232 L 172.866 100.452 L 175.24 103.672 L 177.613 106.891 L 179.986 110.111 L 182.36 113.331 L 184.733 116.551 L 187.106 119.77 L 188.074 120.157 L 183.72 121.781 L 180.09 123.461 L 176.46 125.142 L 172.831 126.823 L 169.201 128.504 L 165.571 130.185 L 161.942 131.866 L 158.312 133.547 L 154.682 135.227 L 151.052 136.908 L 147.423 138.589 L 144.542 139.924" fill="none" vector-effect="non-scaling-stroke" stroke-width="1.2" stroke="rgb(0,0,0)" stroke-opacity="10000" stroke-linejoin="round" stroke-linecap="butt" stroke-miterlimit="4"/><path d=" M 56.624 179.744 L 81.816 143.759 L 77.948 142.738 L 74.081 141.718 L 70.213 140.697 L 66.346 139.676 L 62.478 138.655 L 58.61 137.634 L 54.743 136.613 L 50.875 135.592 L 47.008 134.572 L 43.14 133.551 L 39.273 132.53 L 35.405 131.509 L 31.538 130.488 L 27.972 129.548 L 30.462 126.418 L 32.953 123.287 L 35.443 120.157 L 37.934 117.027 L 40.424 113.898 L 42.915 110.768 L 45.406 107.637 L 47.896 104.507 L 50.386 101.377 L 52.877 98.247 L 55.368 95.117 L 56.65 93.506 L 58.441 97.082 L 60.232 100.659 L 62.023 104.235 L 63.814 107.812 L 65.605 111.388 L 67.396 114.966 L 69.188 118.542 L 70.978 122.118 L 72.77 125.695 L 74.561 129.272 L 76.352 132.848 L 78.143 136.425 L 79.934 140.002 L 81.816 143.759" fill="none" vector-effect="non-scaling-stroke" stroke-width="1.2" stroke="rgb(0,0,0)" stroke-opacity="10000" stroke-linejoin="round" stroke-linecap="butt" stroke-miterlimit="4"/></g></g></svg>